<?xml version="1.0" encoding="utf-8"?>
<svg viewBox="0 0 5080 2000" xmlns="http://www.w3.org/2000/svg">
  <defs>
    <filter id="filter-1" x="-.13283" y="-.06964" width="1.2656" height="1.1393">
      <feGaussianBlur stdDeviation="3.72121"/>
    </filter>
  </defs>
  <rect x="-3.8" y="-7.739" width="5092.128" height="2018.959" style="fill: rgb(255, 255, 255);"/>
  <g>
    <g transform="matrix(7.841701, 0, 0, 7.841701, 4293.946777, 953.619019)" style="">
      <g>
        <path d="M 56.45 14.388 C 51.622 14.388 46.942 14.979 42.419 16.16 C 37.896 17.341 33.45 19.127 29.044 21.532 L 29.044 33.429 C 33.591 30.603 37.942 28.465 42.138 26.988 C 46.334 25.512 50.31 24.767 54.013 24.766 C 59.075 24.767 63.13 25.934 66.201 28.254 C 69.272 30.574 70.795 33.612 70.795 37.366 C 70.795 39.434 70.209 41.459 69.014 43.441 C 67.818 45.424 65.873 47.534 63.201 49.77 L 56.889 55.395 C 52.67 59.023 49.889 62.215 48.576 64.957 C 47.264 67.699 46.607 71.187 46.607 75.447 L 46.607 85.207 L 60.045 85.207 L 60.045 77.416 C 60.045 75.223 60.123 73.479 60.264 72.213 C 60.405 70.948 60.608 69.893 60.889 69.007 C 61.264 67.953 61.912 66.863 62.827 65.745 C 63.741 64.627 65.311 63.059 67.514 61.076 L 73.702 55.648 C 77.92 52.02 80.858 48.75 82.545 45.86 C 84.233 42.97 85.077 39.926 85.077 36.72 C 85.076 30.012 82.459 24.612 77.233 20.52 C 72.006 16.428 65.077 14.389 56.452 14.389 Z M 46.2 94.488 L 46.2 110.576 L 60.45 110.576 L 60.45 94.488 L 46.2 94.488 Z" filter="url(#filter-1)" opacity=".6" style="fill: rgb(65, 119, 184);"/>
        <path d="M 42.82 9.888 C 37.992 9.888 33.312 10.479 28.789 11.66 C 24.266 12.841 19.82 14.627 15.414 17.032 L 15.414 28.929 C 19.961 26.103 24.312 23.965 28.508 22.488 C 32.704 21.012 36.68 20.267 40.383 20.266 C 45.445 20.267 49.5 21.434 52.571 23.754 C 55.642 26.074 57.165 29.112 57.165 32.866 C 57.165 34.934 56.579 36.959 55.384 38.941 C 54.188 40.924 52.243 43.034 49.571 45.27 L 43.259 50.895 C 39.04 54.523 36.259 57.715 34.946 60.457 C 33.634 63.199 32.977 66.687 32.977 70.947 L 32.977 80.707 L 46.415 80.707 L 46.415 72.916 C 46.415 70.723 46.493 68.979 46.634 67.713 C 46.775 66.448 46.978 65.393 47.259 64.507 C 47.634 63.453 48.282 62.363 49.197 61.245 C 50.111 60.127 51.681 58.559 53.884 56.576 L 60.072 51.148 C 64.29 47.52 67.228 44.25 68.915 41.36 C 70.603 38.47 71.447 35.426 71.447 32.22 C 71.446 25.512 68.829 20.112 63.603 16.02 C 58.376 11.928 51.447 9.889 42.822 9.889 Z M 32.57 89.988 L 32.57 106.076 L 46.82 106.076 L 46.82 89.988 L 32.57 89.988 Z" stroke="#fff" style="fill: rgb(65, 119, 184);"/>
      </g>
    </g>
  </g>
</svg>